# 3ds Max Wavefront OBJ Exporter v0.97b - (c)2007 guruware
# 创建的文件:19.08.2019 16:25:21

mtllib sky.mtl

#
# object Box001
#

v  -29.80527 -29.35437 29.75808
v  -29.80527 -29.35437 -29.04962
v  29.06270 -29.35437 -29.04963
v  29.06270 -29.35437 29.75808
v  -29.80527 29.74300 29.75808
v  29.06270 29.74300 29.75808
v  29.06270 29.74301 -29.04963
v  -29.80527 29.74301 -29.04962
# 8 vertices

vn -0.57735 -0.57735 0.57735
vn -0.57735 -0.57735 -0.57735
vn 0.57735 -0.57735 -0.57735
vn 0.57735 -0.57735 0.57735
vn -0.57735 0.57735 0.57735
vn 0.57735 0.57735 0.57735
vn 0.57735 0.57735 -0.57735
vn -0.57735 0.57735 -0.57735
# 8 vertex normals

vt 1.00000 0.00000 0.00000
vt 1.00000 1.00000 0.00000
vt 0.00000 1.00000 0.00000
vt 0.00000 0.00000 0.00000
# 4 texture coords

o Box001
g Box001
usemtl 09___Default
s 2
f 1/1/1 2/2/2 3/3/3 4/4/4 
usemtl 01___Default
s 4
f 5/4/5 6/1/6 7/2/7 8/3/8 
usemtl 02___Default
s 8
f 1/4/1 4/1/4 6/2/6 5/3/5 
usemtl 07___Default
s 16
f 4/4/4 3/1/3 7/2/7 6/3/6 
usemtl 08___Default
s 32
f 3/4/3 2/1/2 8/2/8 7/3/7 
usemtl 03___Default
s 64
f 2/4/2 1/1/1 5/2/5 8/3/8 
# 6 polygons

