# 3ds Max Wavefront OBJ Exporter v0.97b - (c)2007 guruware
# 创建的文件:19.08.2019 17:58:52

mtllib tunnel5.mtl

#
# object Cylinder001
#

v  2.59630 -9.57582 -302.77164
v  5.77620 -8.12548 -302.77164
v  5.77619 -8.12548 -190.65746
v  2.59629 -9.57582 -190.65747
v  8.25717 -5.69882 -302.77164
v  8.25716 -5.69882 -190.65744
v  9.73998 -2.58854 -302.77164
v  9.73997 -2.58854 -190.65747
v  10.04578 0.83021 -302.77164
v  10.04577 0.83021 -190.65747
v  9.13768 4.14509 -302.77164
v  9.13767 4.14509 -190.65747
v  7.12521 6.95626 -302.77164
v  7.12521 6.95626 -190.65744
v  4.25111 8.92467 -302.77164
v  4.25111 8.92467 -190.65746
v  0.86204 9.81288 -302.77164
v  0.86203 9.81288 -190.65747
v  -2.63324 9.51378 -302.77164
v  -2.63324 9.51378 -190.65747
v  -5.81313 8.06344 -302.77164
v  -5.81314 8.06343 -190.65750
v  -8.29411 5.63678 -302.77164
v  -8.29411 5.63678 -190.65750
v  -9.77692 2.52650 -302.77164
v  -9.77692 2.52650 -190.65746
v  -10.08272 -0.89225 -302.77164
v  -10.08272 -0.89225 -190.65746
v  -9.17462 -4.20712 -302.77164
v  -9.17463 -4.20712 -190.65746
v  -7.16216 -7.01830 -302.77164
v  -7.16216 -7.01830 -190.65750
v  -4.28806 -8.98671 -302.77164
v  -4.28806 -8.98670 -190.65747
v  -0.89899 -9.87492 -302.77164
v  -0.89899 -9.87493 -190.65747
v  5.77618 -8.12548 -78.54332
v  2.59629 -9.57582 -78.54330
v  8.25716 -5.69882 -78.54333
v  9.73997 -2.58854 -78.54330
v  10.04576 0.83021 -78.54330
v  9.13767 4.14509 -78.54333
v  7.12520 6.95626 -78.54333
v  4.25110 8.92467 -78.54332
v  0.86203 9.81288 -78.54330
v  -2.63325 9.51378 -78.54330
v  -5.81314 8.06343 -78.54330
v  -8.29412 5.63678 -78.54330
v  -9.77693 2.52650 -78.54333
v  -10.08273 -0.89225 -78.54333
v  -9.17463 -4.20712 -78.54330
v  -7.16217 -7.01830 -78.54330
v  -4.28807 -8.98671 -78.54330
v  -0.89900 -9.87493 -78.54330
v  5.77618 -8.12548 33.57086
v  2.59628 -9.57582 33.57089
v  8.25715 -5.69882 33.57086
v  9.73996 -2.58854 33.57086
v  10.04576 0.83021 33.57086
v  9.13766 4.14509 33.57086
v  7.12520 6.95626 33.57086
v  4.25110 8.92467 33.57086
v  0.86202 9.81288 33.57089
v  -2.63325 9.51378 33.57089
v  -5.81315 8.06344 33.57089
v  -8.29412 5.63678 33.57089
v  -9.77693 2.52650 33.57089
v  -10.08273 -0.89225 33.57089
v  -9.17464 -4.20712 33.57089
v  -7.16217 -7.01830 33.57089
v  -4.28807 -8.98671 33.57089
v  -0.89900 -9.87492 33.57089
v  5.77617 -8.12548 145.68503
v  2.59628 -9.57582 145.68503
v  8.25715 -5.69882 145.68503
v  9.73996 -2.58854 145.68500
v  10.04576 0.83021 145.68500
v  9.13766 4.14509 145.68500
v  7.12519 6.95626 145.68503
v  4.25109 8.92466 145.68503
v  0.86202 9.81288 145.68503
v  -2.63326 9.51378 145.68503
v  -5.81316 8.06343 145.68503
v  -8.29413 5.63678 145.68503
v  -9.77694 2.52650 145.68506
v  -10.08274 -0.89225 145.68506
v  -9.17464 -4.20712 145.68506
v  -7.16218 -7.01830 145.68503
v  -4.28808 -8.98671 145.68503
v  -0.89901 -9.87492 145.68503
v  5.77617 -8.12548 257.79916
v  2.59627 -9.57582 257.79916
v  8.25714 -5.69882 257.79916
v  9.73995 -2.58854 257.79916
v  10.04575 0.83021 257.79916
v  9.13765 4.14508 257.79916
v  7.12519 6.95626 257.79916
v  4.25109 8.92466 257.79916
v  0.86201 9.81288 257.79916
v  -2.63326 9.51378 257.79916
v  -5.81316 8.06344 257.79916
v  -8.29413 5.63678 257.79916
v  -9.77695 2.52650 257.79916
v  -10.08274 -0.89225 257.79916
v  -9.17465 -4.20712 257.79916
v  -7.16218 -7.01830 257.79916
v  -4.28808 -8.98671 257.79916
v  -0.89901 -9.87493 257.79916
# 108 vertices

vn 0.16399 -0.99183 0.00000
vn 0.44029 -0.86916 0.00000
vn 0.70600 -0.63530 0.00000
vn 0.90932 -0.27560 0.00000
vn 0.90931 -0.27562 0.00000
vn 0.97063 0.16082 0.00000
vn 0.97063 0.16087 0.00000
vn 0.86146 0.55770 0.00000
vn 0.86145 0.55772 0.00000
vn 0.64042 0.83108 0.00000
vn 0.37861 0.97808 0.00000
vn 0.10876 1.02630 0.00000
vn -0.16399 0.99183 -0.00000
vn -0.44029 0.86916 -0.00000
vn -0.70600 0.63530 -0.00000
vn -0.90931 0.27563 -0.00000
vn -0.90931 0.27562 -0.00000
vn -0.97063 -0.16089 -0.00000
vn -0.97063 -0.16087 -0.00000
vn -0.86144 -0.55774 -0.00000
vn -0.86146 -0.55772 -0.00000
vn -0.64042 -0.83108 -0.00000
vn -0.37862 -0.97808 -0.00000
vn -0.10876 -1.02630 -0.00000
vn -0.44031 0.86915 -0.00000
vn -0.70598 0.63531 -0.00000
vn -0.86145 -0.55772 -0.00000
vn -0.44030 0.86916 -0.00000
vn -0.37861 -0.97808 -0.00000
vn 0.86144 0.55774 0.00000
vn 0.44028 -0.86917 0.00000
vn 0.70598 -0.63531 0.00000
vn -0.44028 0.86917 -0.00000
vn -0.70601 0.63528 -0.00000
vn -0.97063 -0.16084 -0.00000
vn -0.86145 -0.55774 -0.00000
# 36 vertex normals

vt 0.75000 0.00000 1.00000
vt 0.80556 0.00000 1.00000
vt 0.80556 0.20000 1.00000
vt 0.75000 0.20000 1.00000
vt 0.86111 0.00000 1.00000
vt 0.86111 0.20000 1.00000
vt 0.91667 0.00000 1.00000
vt 0.91667 0.20000 1.00000
vt 0.97222 0.00000 1.00000
vt 0.97222 0.20000 1.00000
vt -0.02778 0.00000 1.00000
vt 0.02778 0.00000 1.00000
vt 0.02778 0.20000 1.00000
vt -0.02778 0.20000 1.00000
vt 0.08333 0.00000 1.00000
vt 0.08333 0.20000 1.00000
vt 0.13889 0.00000 1.00000
vt 0.13889 0.20000 1.00000
vt 0.19444 0.00000 1.00000
vt 0.19444 0.20000 1.00000
vt 0.25000 0.00000 1.00000
vt 0.25000 0.20000 1.00000
vt 0.30556 0.00000 1.00000
vt 0.30556 0.20000 1.00000
vt 0.36111 0.00000 1.00000
vt 0.36111 0.20000 1.00000
vt 0.41667 0.00000 1.00000
vt 0.41667 0.20000 1.00000
vt 0.47222 0.00000 1.00000
vt 0.47222 0.20000 1.00000
vt 0.52778 0.00000 1.00000
vt 0.52778 0.20000 1.00000
vt 0.58333 0.00000 1.00000
vt 0.58333 0.20000 1.00000
vt 0.63889 0.00000 1.00000
vt 0.63889 0.20000 1.00000
vt 0.69444 0.00000 1.00000
vt 0.69444 0.20000 1.00000
vt 0.80556 0.40000 1.00000
vt 0.75000 0.40000 1.00000
vt 0.86111 0.40000 1.00000
vt 0.91667 0.40000 1.00000
vt 0.97222 0.40000 1.00000
vt 0.02778 0.40000 1.00000
vt -0.02778 0.40000 1.00000
vt 0.08333 0.40000 1.00000
vt 0.13889 0.40000 1.00000
vt 0.19444 0.40000 1.00000
vt 0.25000 0.40000 1.00000
vt 0.30556 0.40000 1.00000
vt 0.36111 0.40000 1.00000
vt 0.41667 0.40000 1.00000
vt 0.47222 0.40000 1.00000
vt 0.52778 0.40000 1.00000
vt 0.58333 0.40000 1.00000
vt 0.63889 0.40000 1.00000
vt 0.69444 0.40000 1.00000
vt 0.80556 0.60000 1.00000
vt 0.75000 0.60000 1.00000
vt 0.86111 0.60000 1.00000
vt 0.91667 0.60000 1.00000
vt 0.97222 0.60000 1.00000
vt 0.02778 0.60000 1.00000
vt -0.02778 0.60000 1.00000
vt 0.08333 0.60000 1.00000
vt 0.13889 0.60000 1.00000
vt 0.19444 0.60000 1.00000
vt 0.25000 0.60000 1.00000
vt 0.30556 0.60000 1.00000
vt 0.36111 0.60000 1.00000
vt 0.41667 0.60000 1.00000
vt 0.47222 0.60000 1.00000
vt 0.52778 0.60000 1.00000
vt 0.58333 0.60000 1.00000
vt 0.63889 0.60000 1.00000
vt 0.69444 0.60000 1.00000
vt 0.80556 0.80000 1.00000
vt 0.75000 0.80000 1.00000
vt 0.86111 0.80000 1.00000
vt 0.91667 0.80000 1.00000
vt 0.97222 0.80000 1.00000
vt 0.02778 0.80000 1.00000
vt -0.02778 0.80000 1.00000
vt 0.08333 0.80000 1.00000
vt 0.13889 0.80000 1.00000
vt 0.19444 0.80000 1.00000
vt 0.25000 0.80000 1.00000
vt 0.30556 0.80000 1.00000
vt 0.36111 0.80000 1.00000
vt 0.41667 0.80000 1.00000
vt 0.47222 0.80000 1.00000
vt 0.52778 0.80000 1.00000
vt 0.58333 0.80000 1.00000
vt 0.63889 0.80000 1.00000
vt 0.69444 0.80000 1.00000
vt 0.80556 1.00000 1.00000
vt 0.75000 1.00000 1.00000
vt 0.86111 1.00000 1.00000
vt 0.91667 1.00000 1.00000
vt 0.97222 1.00000 1.00000
vt 0.02778 1.00000 1.00000
vt -0.02778 1.00000 1.00000
vt 0.08333 1.00000 1.00000
vt 0.13889 1.00000 1.00000
vt 0.19444 1.00000 1.00000
vt 0.25000 1.00000 1.00000
vt 0.30556 1.00000 1.00000
vt 0.36111 1.00000 1.00000
vt 0.41667 1.00000 1.00000
vt 0.47222 1.00000 1.00000
vt 0.52778 1.00000 1.00000
vt 0.58333 1.00000 1.00000
vt 0.63889 1.00000 1.00000
vt 0.69444 1.00000 1.00000
# 114 texture coords

o Cylinder001
g Cylinder001
usemtl 14___Default
s 8
f 1/1/1 2/2/2 3/3/2 4/4/1 
f 2/2/2 5/5/3 6/6/3 3/3/2 
f 5/5/3 7/7/4 8/8/5 6/6/3 
f 7/7/4 9/9/6 10/10/7 8/8/5 
f 9/11/6 11/12/8 12/13/9 10/14/7 
f 11/12/8 13/15/10 14/16/10 12/13/9 
f 13/15/10 15/17/11 16/18/11 14/16/10 
f 15/17/11 17/19/12 18/20/12 16/18/11 
f 17/19/12 19/21/13 20/22/13 18/20/12 
f 19/21/13 21/23/14 22/24/14 20/22/13 
f 21/23/14 23/25/15 24/26/15 22/24/14 
f 23/25/15 25/27/16 26/28/17 24/26/15 
f 25/27/16 27/29/18 28/30/19 26/28/17 
f 27/29/18 29/31/20 30/32/21 28/30/19 
f 29/31/20 31/33/22 32/34/22 30/32/21 
f 31/33/22 33/35/23 34/36/23 32/34/22 
f 33/35/23 35/37/24 36/38/24 34/36/23 
f 35/37/24 1/1/1 4/4/1 36/38/24 
f 4/4/1 3/3/2 37/39/2 38/40/1 
f 3/3/2 6/6/3 39/41/3 37/39/2 
f 6/6/3 8/8/5 40/42/5 39/41/3 
f 8/8/5 10/10/7 41/43/7 40/42/5 
f 10/14/7 12/13/9 42/44/9 41/45/7 
f 12/13/9 14/16/10 43/46/10 42/44/9 
f 14/16/10 16/18/11 44/47/11 43/46/10 
f 16/18/11 18/20/12 45/48/12 44/47/11 
f 18/20/12 20/22/13 46/49/13 45/48/12 
f 20/22/13 22/24/14 47/50/25 46/49/13 
f 22/24/14 24/26/15 48/51/26 47/50/25 
f 24/26/15 26/28/17 49/52/16 48/51/26 
f 26/28/17 28/30/19 50/53/19 49/52/16 
f 28/30/19 30/32/21 51/54/27 50/53/19 
f 30/32/21 32/34/22 52/55/22 51/54/27 
f 32/34/22 34/36/23 53/56/23 52/55/22 
f 34/36/23 36/38/24 54/57/24 53/56/23 
f 36/38/24 4/4/1 38/40/1 54/57/24 
f 38/40/1 37/39/2 55/58/2 56/59/1 
f 37/39/2 39/41/3 57/60/3 55/58/2 
f 39/41/3 40/42/5 58/61/5 57/60/3 
f 40/42/5 41/43/7 59/62/7 58/61/5 
f 41/45/7 42/44/9 60/63/9 59/64/7 
f 42/44/9 43/46/10 61/65/10 60/63/9 
f 43/46/10 44/47/11 62/66/11 61/65/10 
f 44/47/11 45/48/12 63/67/12 62/66/11 
f 45/48/12 46/49/13 64/68/13 63/67/12 
f 46/49/13 47/50/25 65/69/28 64/68/13 
f 47/50/25 48/51/26 66/70/15 65/69/28 
f 48/51/26 49/52/16 67/71/17 66/70/15 
f 49/52/16 50/53/19 68/72/19 67/71/17 
f 50/53/19 51/54/27 69/73/21 68/72/19 
f 51/54/27 52/55/22 70/74/22 69/73/21 
f 52/55/22 53/56/23 71/75/29 70/74/22 
f 53/56/23 54/57/24 72/76/24 71/75/29 
f 54/57/24 38/40/1 56/59/1 72/76/24 
f 56/59/1 55/58/2 73/77/2 74/78/1 
f 55/58/2 57/60/3 75/79/3 73/77/2 
f 57/60/3 58/61/5 76/80/5 75/79/3 
f 58/61/5 59/62/7 77/81/7 76/80/5 
f 59/64/7 60/63/9 78/82/30 77/83/7 
f 60/63/9 61/65/10 79/84/10 78/82/30 
f 61/65/10 62/66/11 80/85/11 79/84/10 
f 62/66/11 63/67/12 81/86/12 80/85/11 
f 63/67/12 64/68/13 82/87/13 81/86/12 
f 64/68/13 65/69/28 83/88/28 82/87/13 
f 65/69/28 66/70/15 84/89/15 83/88/28 
f 66/70/15 67/71/17 85/90/17 84/89/15 
f 67/71/17 68/72/19 86/91/19 85/90/17 
f 68/72/19 69/73/21 87/92/21 86/91/19 
f 69/73/21 70/74/22 88/93/22 87/92/21 
f 70/74/22 71/75/29 89/94/29 88/93/22 
f 71/75/29 72/76/24 90/95/24 89/94/29 
f 72/76/24 56/59/1 74/78/1 90/95/24 
f 74/78/1 73/77/2 91/96/31 92/97/1 
f 73/77/2 75/79/3 93/98/32 91/96/31 
f 75/79/3 76/80/5 94/99/5 93/98/32 
f 76/80/5 77/81/7 95/100/7 94/99/5 
f 77/83/7 78/82/30 96/101/9 95/102/7 
f 78/82/30 79/84/10 97/103/10 96/101/9 
f 79/84/10 80/85/11 98/104/11 97/103/10 
f 80/85/11 81/86/12 99/105/12 98/104/11 
f 81/86/12 82/87/13 100/106/13 99/105/12 
f 82/87/13 83/88/28 101/107/33 100/106/13 
f 83/88/28 84/89/15 102/108/34 101/107/33 
f 84/89/15 85/90/17 103/109/17 102/108/34 
f 85/90/17 86/91/19 104/110/35 103/109/17 
f 86/91/19 87/92/21 105/111/36 104/110/35 
f 87/92/21 88/93/22 106/112/22 105/111/36 
f 88/93/22 89/94/29 107/113/29 106/112/22 
f 89/94/29 90/95/24 108/114/24 107/113/29 
f 90/95/24 74/78/1 92/97/1 108/114/24 
# 90 polygons

